<?xml version="1.0" encoding="utf-8"?>
<!-- Generator: Adobe Illustrator 19.0.0, SVG Export Plug-In . SVG Version: 6.00 Build 0)  -->
<svg version="1.1" id="Layer_1" xmlns="http://www.w3.org/2000/svg" xmlns:xlink="http://www.w3.org/1999/xlink" x="0px" y="0px"
	 viewBox="0 0 96 96" style="enable-background:new 0 0 96 96;" xml:space="preserve">
<style type="text/css">
	.st0{fill:#333333;}
</style>
<g id="XMLID_1_">
	<polygon id="XMLID_8_" class="st0" points="77,27.8 76.4,27.7 19.6,27.7 19.2,27.8 48,53.4 	"/>
	<path id="XMLID_9_" class="st0" d="M80.2,30.4L59.7,48.5L80,66.2c0.3-0.6,0.5-1.2,0.5-1.9V31.8C80.5,31.3,80.4,30.8,80.2,30.4z"/>
	<path id="XMLID_10_" class="st0" d="M15.8,30.2c-0.2,0.5-0.3,1-0.3,1.6v32.5c0,0.6,0.1,1.1,0.4,1.7l20.4-17.5L15.8,30.2z"/>
	<polygon id="XMLID_11_" class="st0" points="48,58.8 39.3,51.1 19.3,68.3 19.6,68.3 76.3,68.3 56.7,51.2 	"/>
</g>
</svg>
